<?xml version="1.0" encoding="UTF-8" standalone="no"?>
<svg width="167px" height="26px" viewBox="0 0 167 26" version="1.1" xmlns="http://www.w3.org/2000/svg" xmlns:xlink="http://www.w3.org/1999/xlink">
    <!-- Generator: Sketch 47 (45396) - http://www.bohemiancoding.com/sketch -->
    <title>unscrewed</title>
    <desc>Created with Sketch.</desc>
    <defs></defs>
    <g id="Page-1" stroke="none" stroke-width="1" fill="none" fill-rule="evenodd">
        <g id="Desktop" transform="translate(-510.000000, -201.000000)" fill="#000000">
            <path d="M526.729,226 L526.729,208.422 L521.901,208.422 L521.901,217.636 C521.901,219.426676 521.606336,220.712996 521.017,221.495 C520.427664,222.277004 519.475673,222.668 518.161,222.668 C517.004994,222.668 516.200336,222.311004 515.747,221.597 C515.293664,220.882996 515.067,219.800674 515.067,218.35 L515.067,208.422 L510.239,208.422 L510.239,219.234 C510.239,220.322005 510.335332,221.313662 510.528,222.209 C510.720668,223.104338 511.054998,223.863664 511.531,224.487 C512.007002,225.110336 512.658663,225.591998 513.486,225.932 C514.313337,226.272002 515.372994,226.442 516.665,226.442 C517.685005,226.442 518.682328,226.215336 519.657,225.762 C520.631672,225.308664 521.424997,224.572005 522.037,223.552 L522.139,223.552 L522.139,226 L526.729,226 Z M529.401,208.422 L529.401,226 L534.229,226 L534.229,216.786 C534.229,214.995324 534.523664,213.709004 535.113,212.927 C535.702336,212.144996 536.654327,211.754 537.969,211.754 C539.125006,211.754 539.929664,212.110996 540.383,212.825 C540.836336,213.539004 541.063,214.621326 541.063,216.072 L541.063,226 L545.891,226 L545.891,215.188 C545.891,214.099995 545.794668,213.108338 545.602,212.213 C545.409332,211.317662 545.075002,210.558336 544.599,209.935 C544.122998,209.311664 543.471337,208.824335 542.644,208.473 C541.816663,208.121665 540.757006,207.946 539.465,207.946 C538.444995,207.946 537.447672,208.178331 536.473,208.643 C535.498328,209.107669 534.705003,209.849995 534.093,210.87 L533.991,210.87 L533.991,208.422 L529.401,208.422 Z M552.303,220.288 L547.713,220.288 C547.758334,221.466673 548.024664,222.446996 548.512,223.229 C548.999336,224.011004 549.622663,224.639998 550.382,225.116 C551.141337,225.592002 552.008328,225.931999 552.983,226.136 C553.957672,226.340001 554.954995,226.442 555.975,226.442 C556.972338,226.442 557.952662,226.345668 558.916,226.153 C559.879338,225.960332 560.734996,225.626002 561.483,225.15 C562.231004,224.673998 562.837331,224.045004 563.302,223.263 C563.766669,222.480996 563.999,221.512006 563.999,220.356 C563.999,219.539996 563.840335,218.854336 563.523,218.299 C563.205665,217.743664 562.786336,217.279002 562.265,216.905 C561.743664,216.530998 561.14867,216.230668 560.48,216.004 C559.81133,215.777332 559.12567,215.584667 558.423,215.426 C557.742997,215.267333 557.074337,215.120001 556.417,214.984 C555.759663,214.847999 555.176003,214.695001 554.666,214.525 C554.155997,214.354999 553.742335,214.134001 553.425,213.862 C553.107665,213.589999 552.949,213.238669 552.949,212.808 C552.949,212.445332 553.039666,212.156334 553.221,211.941 C553.402334,211.725666 553.623332,211.561334 553.884,211.448 C554.144668,211.334666 554.433665,211.261 554.751,211.227 C555.068335,211.193 555.362999,211.176 555.635,211.176 C556.496338,211.176 557.24433,211.340332 557.879,211.669 C558.51367,211.997668 558.865,212.626662 558.933,213.556 L563.523,213.556 C563.432333,212.467995 563.154669,211.567004 562.69,210.853 C562.225331,210.138996 561.64167,209.566669 560.939,209.136 C560.23633,208.705331 559.437338,208.399334 558.542,208.218 C557.646662,208.036666 556.723005,207.946 555.771,207.946 C554.818995,207.946 553.889671,208.030999 552.983,208.201 C552.076329,208.371001 551.260337,208.665665 550.535,209.085 C549.809663,209.504335 549.226002,210.076663 548.784,210.802 C548.341998,211.527337 548.121,212.456661 548.121,213.59 C548.121,214.360671 548.279665,215.012331 548.597,215.545 C548.914335,216.077669 549.333664,216.519665 549.855,216.871 C550.376336,217.222335 550.97133,217.505666 551.64,217.721 C552.30867,217.936334 552.99433,218.123333 553.697,218.282 C555.419675,218.644668 556.762662,219.007332 557.726,219.37 C558.689338,219.732668 559.171,220.276663 559.171,221.002 C559.171,221.432669 559.069001,221.789665 558.865,222.073 C558.660999,222.356335 558.406002,222.582999 558.1,222.753 C557.793998,222.923001 557.454002,223.047666 557.08,223.127 C556.705998,223.206334 556.349002,223.246 556.009,223.246 C555.532998,223.246 555.074002,223.189334 554.632,223.076 C554.189998,222.962666 553.799002,222.787001 553.459,222.549 C553.118998,222.310999 552.841334,222.005002 552.626,221.631 C552.410666,221.256998 552.303,220.809336 552.303,220.288 Z M577.789,214.61 L582.515,214.61 C582.447,213.476661 582.175002,212.496337 581.699,211.669 C581.222998,210.841663 580.605337,210.150336 579.846,209.595 C579.086663,209.039664 578.225338,208.626001 577.262,208.354 C576.298662,208.081999 575.295672,207.946 574.253,207.946 C572.824993,207.946 571.555672,208.183998 570.445,208.66 C569.334328,209.136002 568.393671,209.798996 567.623,210.649 C566.852329,211.499004 566.268669,212.507661 565.872,213.675 C565.475331,214.842339 565.277,216.105993 565.277,217.466 C565.277,218.780673 565.492331,219.987661 565.923,221.087 C566.353669,222.186339 566.954329,223.132663 567.725,223.926 C568.495671,224.719337 569.430661,225.336998 570.53,225.779 C571.629339,226.221002 572.836327,226.442 574.151,226.442 C576.485678,226.442 578.400993,225.830006 579.897,224.606 C581.393007,223.381994 582.299665,221.602678 582.617,219.268 L577.959,219.268 C577.800333,220.356005 577.409336,221.222997 576.786,221.869 C576.162664,222.515003 575.273006,222.838 574.117,222.838 C573.368996,222.838 572.734336,222.668002 572.213,222.328 C571.691664,221.987998 571.278002,221.551669 570.972,221.019 C570.665998,220.486331 570.445001,219.891337 570.309,219.234 C570.172999,218.576663 570.105,217.93067 570.105,217.296 C570.105,216.638663 570.172999,215.97567 570.309,215.307 C570.445001,214.63833 570.677332,214.026336 571.006,213.471 C571.334668,212.915664 571.759664,212.462335 572.281,212.111 C572.802336,211.759665 573.448329,211.584 574.219,211.584 C576.281677,211.584 577.471665,212.592657 577.789,214.61 Z M584.337,208.422 L588.927,208.422 L588.927,211.686 L588.995,211.686 C589.221668,211.141997 589.527665,210.637669 589.913,210.173 C590.298335,209.708331 590.740331,209.311668 591.239,208.983 C591.737669,208.654332 592.270331,208.399334 592.837,208.218 C593.403669,208.036666 593.992997,207.946 594.605,207.946 C594.922335,207.946 595.273665,208.002666 595.659,208.116 L595.659,212.604 C595.432332,212.558666 595.160335,212.519 594.843,212.485 C594.525665,212.451 594.219668,212.434 593.925,212.434 C593.040996,212.434 592.293003,212.581332 591.681,212.876 C591.068997,213.170668 590.576002,213.572997 590.202,214.083 C589.827998,214.593003 589.561667,215.187997 589.403,215.868 C589.244333,216.548003 589.165,217.284663 589.165,218.078 L589.165,226 L584.337,226 L584.337,208.422 Z M607.783,215.324 C607.556332,214.099994 607.154003,213.17067 606.576,212.536 C605.997997,211.90133 605.119673,211.584 603.941,211.584 C603.170329,211.584 602.530003,211.714332 602.02,211.975 C601.509997,212.235668 601.102002,212.558665 600.796,212.944 C600.489998,213.329335 600.274667,213.737331 600.15,214.168 C600.025333,214.598669 599.951667,214.983998 599.929,215.324 L607.783,215.324 Z M599.929,218.384 C599.997,219.948008 600.393663,221.08133 601.119,221.784 C601.844337,222.48667 602.886993,222.838 604.247,222.838 C605.221672,222.838 606.06033,222.594336 606.763,222.107 C607.46567,221.619664 607.896333,221.104003 608.055,220.56 L612.305,220.56 C611.624997,222.668011 610.58234,224.175329 609.177,225.082 C607.77166,225.988671 606.071677,226.442 604.077,226.442 C602.694326,226.442 601.447672,226.221002 600.337,225.779 C599.226328,225.336998 598.285671,224.708004 597.515,223.892 C596.744329,223.075996 596.149335,222.101339 595.73,220.968 C595.310665,219.834661 595.101,218.588007 595.101,217.228 C595.101,215.913327 595.316331,214.689339 595.747,213.556 C596.177669,212.422661 596.789663,211.442337 597.583,210.615 C598.376337,209.787663 599.322661,209.136002 600.422,208.66 C601.521339,208.183998 602.73966,207.946 604.077,207.946 C605.573007,207.946 606.876328,208.234997 607.987,208.813 C609.097672,209.391003 610.009996,210.167328 610.724,211.142 C611.438004,212.116672 611.953665,213.227327 612.271,214.474 C612.588335,215.720673 612.701667,217.023993 612.611,218.384 L599.929,218.384 Z M634.561,226 L640.103,208.422 L635.139,208.422 L631.909,220.322 L631.841,220.322 L628.849,208.422 L624.157,208.422 L621.233,220.356 L621.165,220.356 L617.935,208.422 L612.835,208.422 L618.411,226 L623.409,226 L626.401,214.202 L626.469,214.202 L629.597,226 L634.561,226 Z M652.975,215.324 C652.748332,214.099994 652.346003,213.17067 651.768,212.536 C651.189997,211.90133 650.311673,211.584 649.133,211.584 C648.362329,211.584 647.722003,211.714332 647.212,211.975 C646.701997,212.235668 646.294002,212.558665 645.988,212.944 C645.681998,213.329335 645.466667,213.737331 645.342,214.168 C645.217333,214.598669 645.143667,214.983998 645.121,215.324 L652.975,215.324 Z M645.121,218.384 C645.189,219.948008 645.585663,221.08133 646.311,221.784 C647.036337,222.48667 648.078993,222.838 649.439,222.838 C650.413672,222.838 651.25233,222.594336 651.955,222.107 C652.65767,221.619664 653.088333,221.104003 653.247,220.56 L657.497,220.56 C656.816997,222.668011 655.77434,224.175329 654.369,225.082 C652.96366,225.988671 651.263677,226.442 649.269,226.442 C647.886326,226.442 646.639672,226.221002 645.529,225.779 C644.418328,225.336998 643.477671,224.708004 642.707,223.892 C641.936329,223.075996 641.341335,222.101339 640.922,220.968 C640.502665,219.834661 640.293,218.588007 640.293,217.228 C640.293,215.913327 640.508331,214.689339 640.939,213.556 C641.369669,212.422661 641.981663,211.442337 642.775,210.615 C643.568337,209.787663 644.514661,209.136002 645.614,208.66 C646.713339,208.183998 647.93166,207.946 649.269,207.946 C650.765007,207.946 652.068328,208.234997 653.179,208.813 C654.289672,209.391003 655.201996,210.167328 655.916,211.142 C656.630004,212.116672 657.145665,213.227327 657.463,214.474 C657.780335,215.720673 657.893667,217.023993 657.803,218.384 L645.121,218.384 Z M672.137,217.16 C672.137,216.434663 672.069001,215.73767 671.933,215.069 C671.796999,214.40033 671.564668,213.811003 671.236,213.301 C670.907332,212.790997 670.482336,212.377335 669.961,212.06 C669.439664,211.742665 668.782337,211.584 667.989,211.584 C667.195663,211.584 666.527003,211.742665 665.983,212.06 C665.438997,212.377335 665.002668,212.796664 664.674,213.318 C664.345332,213.839336 664.107334,214.43433 663.96,215.103 C663.812666,215.77167 663.739,216.468663 663.739,217.194 C663.739,217.874003 663.818333,218.553997 663.977,219.234 C664.135667,219.914003 664.390665,220.520331 664.742,221.053 C665.093335,221.585669 665.535331,222.016332 666.068,222.345 C666.600669,222.673668 667.240996,222.838 667.989,222.838 C668.782337,222.838 669.445331,222.679335 669.978,222.362 C670.510669,222.044665 670.935665,221.619669 671.253,221.087 C671.570335,220.554331 671.796999,219.948003 671.933,219.268 C672.069001,218.587997 672.137,217.885337 672.137,217.16 Z M672.205,223.756 L672.137,223.756 C671.57033,224.708005 670.828005,225.393665 669.91,225.813 C668.991995,226.232335 667.955006,226.442 666.799,226.442 C665.484327,226.442 664.328338,226.187003 663.331,225.677 C662.333662,225.166997 661.512003,224.475671 660.866,223.603 C660.219997,222.730329 659.732668,221.727339 659.404,220.594 C659.075332,219.460661 658.911,218.282006 658.911,217.058 C658.911,215.879327 659.075332,214.740339 659.404,213.641 C659.732668,212.541661 660.219997,211.572671 660.866,210.734 C661.512003,209.895329 662.322328,209.221003 663.297,208.711 C664.271672,208.200997 665.404994,207.946 666.697,207.946 C667.739672,207.946 668.731329,208.166998 669.672,208.609 C670.612671,209.051002 671.354997,209.702662 671.899,210.564 L671.967,210.564 L671.967,201.724 L676.795,201.724 L676.795,226 L672.205,226 L672.205,223.756 Z" id="unscrewed"></path>
        </g>
    </g>
</svg>